#!OML:ASF F:\VICON\USERDATA\INSTALL\rory3\rory3.ASF
:FULLY-SPECIFIED
:DEGREES
302
root 0.833002 17.5498 23.5095 0.107214 -10.7246 -8.00688
lowerback 6.30814 3.86941 8.92823
upperback 0.165996 5.84318 1.7574
thorax -2.65796 2.79904 -3.60976
lowerneck -16.4696 -3.07232 -0.974555
upperneck 17.8642 -4.26203 1.33393
head 8.31758 -1.9433 0.0994397
rclavicle -7.17721e-014 -3.98563e-014
rhumerus -25.893 -6.6317 -82.7336
rradius 32.0217
rwrist -0.726347
rhand -14.9392 21.0266
rfingers 7.12502
rthumb 11.2234 -8.65321
lclavicle -7.17721e-014 -3.98563e-014
lhumerus -40.0818 2.31202 82.5932
lradius 26.663
lwrist -1.98535
lhand -22.9975 30.6939
lfingers 7.12502
lthumb 3.4455 60.6458
rfemur 13.7867 8.51623 33.9221
rtibia 24.6147
rfoot -21.5164 -2.8378
rtoes -18.7061
lfemur -28.6918 -6.38351 -6.88573
ltibia 20.1488
lfoot -6.81394 5.80267
ltoes -19.7896
303
root 0.861746 17.5793 23.7373 0.090981 -10.927 -7.77368
lowerback 5.99075 3.95404 8.91048
upperback 0.13511 5.91739 1.63395
thorax -2.49163 2.84292 -3.7057
lowerneck -16.5681 -3.04384 -1.02355
upperneck 18.1418 -4.22852 1.39151
head 8.43091 -1.9216 0.12689
rclavicle 1.15233e-015 -3.75952e-014
rhumerus -26.3007 -6.93908 -82.6796
rradius 31.7378
rwrist -0.365056
rhand -14.1647 19.561
rfingers 7.12502
rthumb 11.9703 -10.0768
lclavicle 1.15233e-015 -3.75952e-014
lhumerus -40.2492 2.52113 82.3929
lradius 26.5986
lwrist -1.70979
lhand -22.8896 31.0761
lfingers 7.12502
lthumb 3.54975 61.0263
rfemur 14.2911 8.5533 33.4042
rtibia 25.0089
rfoot -20.7084 -2.23711
rtoes -19.211
lfemur -28.4861 -5.76723 -7.70187
ltibia 21.03
lfoot -4.89663 4.70614
ltoes -20.4361
304
root 0.88671 17.6003 23.9539 0.0334674 -10.8246 -7.40227
lowerback 5.92546 3.88243 8.60924
upperback 0.0141707 5.80098 1.54031
thorax -2.61548 2.78012 -3.63307
lowerneck -16.6199 -2.95375 -0.941435
upperneck 18.3798 -4.08304 1.16897
head 8.51183 -1.86846 0.0538639
rclavicle -7.14685e-014 3.72721e-015
rhumerus -26.5374 -7.20782 -82.6152
rradius 31.1008
rwrist 0.190226
rhand -13.3147 18.3959
rfingers 7.12502
rthumb 12.7898 -11.1924
lclavicle -7.14685e-014 3.72721e-015
lhumerus -40.5237 3.13661 82.0148
lradius 26.5403
lwrist -1.67927
lhand -21.1343 31.3578
lfingers 7.12502
lthumb 5.24471 61.2729
rfemur 14.5677 8.52537 32.8606
rtibia 25.6125
rfoot -19.6419 -1.82939
rtoes -19.1995
lfemur -28.4859 -5.25539 -8.6623
ltibia 22.0929
lfoot -3.1698 3.46837
ltoes -21.2668
305
root 0.90426 17.6206 24.1602 -0.0962679 -10.6384 -7.05908
lowerback 6.10426 3.77154 8.18501
upperback -0.20645 5.65738 1.50102
thorax -2.99999 2.69239 -3.46036
lowerneck -16.4834 -2.92572 -0.822011
upperneck 18.7943 -4.01022 0.823111
head 8.61657 -1.86039 -0.074434
rclavicle -4.69031e-014 3.47873e-016
rhumerus -26.8545 -7.52289 -82.482
rradius 30.272
rwrist 1.16912
rhand -12.9704 18.8003
rfingers 7.12502
rthumb 13.1217 -10.7669
lclavicle -4.69031e-014 3.47873e-016
lhumerus -40.9883 3.8188 81.6069
lradius 26.2851
lwrist -1.69999
lhand -18.9451 30.8021
lfingers 7.12502
lthumb 7.35815 60.6542
rfemur 14.6587 8.70813 32.5244
rtibia 26.5898
rfoot -18.253 -1.50364
rtoes -18.1774
lfemur -28.4344 -4.81478 -9.52624
ltibia 23.0858
lfoot -2.07078 2.60221
ltoes -21.7657
306
root 0.917692 17.6434 24.3769 -0.433613 -10.3871 -6.16097
lowerback 6.1395 3.69808 7.18491
upperback -0.326561 5.49501 1.3368
thorax -3.23831 2.61577 -3.08179
lowerneck -16.459 -2.91542 -0.884507
upperneck 19.3201 -3.97024 0.731705
head 8.79035 -1.8524 -0.0945165
rclavicle -5.15924e-014 -1.0138e-014
rhumerus -27.2916 -7.90109 -82.275
rradius 29.7448
rwrist 2.16022
rhand -13.0021 19.6279
rfingers 7.12502
rthumb 13.0912 -9.94122
lclavicle -5.15924e-014 -1.0138e-014
lhumerus -41.4064 3.99079 81.5782
lradius 25.8151
lwrist -0.701226
lhand -24.0942 28.544
lfingers 7.12502
lthumb 2.38636 58.5104
rfemur 14.7711 8.76278 31.5983
rtibia 28.0094
rfoot -17.0314 -1.4092
rtoes -18.8854
lfemur -28.1484 -4.46901 -10.983
ltibia 24.0304
lfoot -1.70622 2.30963
ltoes -20.4975
307
root 0.933193 17.6635 24.5878 -0.897145 -10.042 -5.25649
lowerback 6.32231 3.59309 6.21364
upperback -0.349988 5.29654 1.18371
thorax -3.45585 2.52577 -2.70901
lowerneck -16.5078 -2.90458 -1.01064
upperneck 19.6228 -3.93006 0.742341
head 8.90556 -1.83943 -0.0687418
rclavicle 2.6908e-014 3.66137e-014
rhumerus -27.8956 -8.65145 -81.9192
rradius 29.5911
rwrist 3.25564
rhand -12.6502 19.7482
rfingers 7.12502
rthumb 13.4304 -9.79889
lclavicle 2.6908e-014 3.66137e-014
lhumerus -41.7025 4.40643 81.3163
lradius 25.8305
lwrist -0.438933
lhand -23.8726 28.0349
lfingers 7.12502
lthumb 2.60037 57.9988
rfemur 14.788 8.54123 30.5919
rtibia 29.6982
rfoot -15.9056 -1.18772
rtoes -19.7971
lfemur -27.711 -4.07992 -12.4507
ltibia 24.877
lfoot -1.79524 1.9855
ltoes -20.0433
308
root 0.951261 17.6718 24.7808 -1.32873 -9.53879 -5.11322
lowerback 6.79498 3.39408 6.03133
upperback -0.338991 5.05569 1.2322
thorax -3.75101 2.39983 -2.5753
lowerneck -16.4843 -2.91916 -1.10322
upperneck 19.6964 -3.91138 0.671078
head 8.92678 -1.84517 -0.075669
rclavicle 2.28865e-014 4.87022e-015
rhumerus -28.3998 -9.35283 -81.5973
rradius 29.3964
rwrist 3.97032
rhand -12.5039 19.7745
rfingers 7.12502
rthumb 13.5714 -9.76322
lclavicle 2.28865e-014 4.87022e-015
lhumerus -41.6786 4.68509 81.2254
lradius 25.7534
lwrist 1.00802
lhand -22.5603 29.1734
lfingers 7.12502
lthumb 3.86769 59.118
rfemur 14.568 8.09318 30.4056
rtibia 31.5734
rfoot -14.3204 -0.925116
rtoes -19.7666
lfemur -27.24 -3.70238 -13.0363
ltibia 25.6171
lfoot -0.921191 1.55579
ltoes -20.5988
